<?xml version="1.0" encoding="utf-8"?>
<!-- Generator: Adobe Illustrator 22.1.0, SVG Export Plug-In . SVG Version: 6.00 Build 0)  -->
<svg version="1.1" xmlns="http://www.w3.org/2000/svg" xmlns:xlink="http://www.w3.org/1999/xlink" x="0px" y="0px"
	 viewBox="0 0 433.7 96.4" style="enable-background:new 0 0 433.7 96.4;" xml:space="preserve">
<style type="text/css">
	.st0{display:none;}
	.st1{display:inline;}
	.st2{fill:#900C1C;}
	.st3{fill:#BD1E2D;}
	.st4{fill:#F2F2F2;}
	.st5{fill:#191919;}
	.st6{fill:#AE0404;}
	.st7{fill:#FFFFFF;}
	.st8{fill:#031B7F;}
	.st9{fill:#F3F306;}
	.st10{fill:#C8C206;}
	.st11{fill:#C5C5C5;}
	.st12{fill:#FFAA00;}
	.st13{fill:#EF7D00;}
	.st14{fill:url(#SVGID_1_);}
	.st15{font-family:'NovaRound';}
	.st16{font-size:50.7932px;}
	.st17{fill:url(#SVGID_2_);}
	.st18{fill:url(#SVGID_3_);}
	.st19{fill:url(#SVGID_4_);}
	.st20{fill:url(#SVGID_5_);}
	.st21{fill:url(#SVGID_6_);}
	.st22{fill:url(#SVGID_7_);}
	.st23{fill:#D2D4D8;}
	.st24{font-family:'Roboto-Light';}
	.st25{font-size:27.4245px;}
	.st26{fill:#EAEAEA;}
</style>
<g id="Layer_4" class="st0">
</g>
<g id="Layer_3">
</g>
<g id="Layer_2">
	<g>
		<g>
			<path class="st7" d="M35.7,24.1l-6.4-6.4L16,26.3l1.3-18.2l1.1-7.7c0,0-4.9,13.9-6,19.9c-0.3,1.9-0.2,12-0.2,12l15.9-9.7l5.8,3.5
				L35.7,24.1z"/>
			<path class="st7" d="M34,26.1l-6.9-0.2L7.2,39.8L7,17.7l2.9-9.1c0,0-3.9,4.5-5,6.6C4,16.9,2.1,36.7,2.1,36.7l2,10.2l23-17.9h7.1"
				/>
			<path class="st7" d="M34.4,30.4L27.2,32L0,61.8l32.7,32c0,0-25.1-29.7-24.7-32.3c0.4-2.7,21.2-25.9,21.2-25.9l6-2.1"/>
			<polyline class="st12" points="35.3,34.5 29.5,36.8 17.6,66.1 50.7,96.4 23.7,63.4 32,39.8 36.5,37.2 			"/>
		</g>
		<g>
			<path class="st7" d="M91.9,24.1l6.4-6.4l13.3,8.6l-1.3-18.2l-1.1-7.7c0,0,4.9,13.9,6,19.9c0.3,1.9,0.2,12,0.2,12l-15.9-9.7
				l-5.8,3.5L91.9,24.1z"/>
			<path class="st7" d="M93.7,26.1l6.9-0.2l19.9,13.9l0.2-22.1l-2.9-9.1c0,0,3.9,4.5,5,6.6c0.9,1.7,2.8,21.5,2.8,21.5l-2,10.2
				l-23-17.9h-7.1"/>
			<path class="st7" d="M93.3,30.4l7.2,1.6l27.2,29.8L95,93.8c0,0,25.1-29.7,24.7-32.3c-0.4-2.7-21.2-25.9-21.2-25.9l-6-2.1"/>
			<polyline class="st13" points="92.4,34.5 98.2,36.8 110,66.1 77,96.4 104,63.4 95.7,39.8 91.2,37.2 			"/>
		</g>
		<g>
			<path class="st12" d="M63.8,46.9c0,0-0.1-7.2-1.5-11.5c-4.7-14.3-14.8-12.5-22.8-14.5c-5.6-1.4-13.8-10.5-13.8-10.5
				s0.7,6.5,2,8.7c2.3,3.8,5.9,6.7,5.9,6.7l0.4,0.2c-1.1,2.2-1.7,4.6-1.7,7.3c0,9,7.3,16.3,16.3,16.3c6,0,10.5-2,13.2-6.3l0.3,0.2
				L63.8,46.9z"/>
			<path d="M57.8,36.6c-1.1-4.8-5.8-8.7-11.8-9.4c-1.6-0.2-3.1-0.1-4.6,0.2c-1.3,1.6-2,3.7-2,5.9c0,5.3,4.3,9.5,9.5,9.5
				C53,42.8,56.5,40.2,57.8,36.6z"/>
			<path class="st12" d="M54.9,31.4c0,2.7-2.2,4.9-4.9,4.9h-0.9c-2.7,0-4.9-2.2-4.9-4.9l0,0c0-2.7,2.2-4.9,4.9-4.9H50
				C52.7,26.5,54.9,28.7,54.9,31.4L54.9,31.4z"/>
		</g>
		<g>
			<path class="st13" d="M63.8,46.9c0,0,0.1-7.2,1.5-11.5C69.9,21.1,80,22.9,88,20.9c5.6-1.4,13.8-10.5,13.8-10.5s-0.7,6.5-2,8.7
				c-2.3,3.8-5.9,6.7-5.9,6.7l-0.4,0.2c1.1,2.2,1.7,4.6,1.7,7.3c0,9-7.3,16.3-16.3,16.3c-6,0-10.5-2-13.2-6.3l-0.3,0.2L63.8,46.9z"
				/>
			<path d="M69.7,36.6c1.1-4.8,5.8-8.7,11.8-9.4c1.6-0.2,3.1-0.1,4.6,0.2c1.3,1.6,2,3.7,2,5.9c0,5.3-4.3,9.5-9.5,9.5
				C74.5,42.8,71,40.2,69.7,36.6z"/>
			<path class="st13" d="M72.6,31.4c0,2.7,2.2,4.9,4.9,4.9h0.9c2.7,0,4.9-2.2,4.9-4.9l0,0c0-2.7-2.2-4.9-4.9-4.9h-0.9
				C74.8,26.5,72.6,28.7,72.6,31.4L72.6,31.4z"/>
		</g>
		<path class="st12" d="M64.1,33.3c0,0-1.8-5.8-10.1-11.3c-3.9-2.6-15.3-2.7-15.3-2.7s8-7.1,11.3-9.5C58.3,3.6,64.1,0,64.1,0"/>
		<linearGradient id="SVGID_1_" gradientUnits="userSpaceOnUse" x1="64.1687" y1="17.8504" x2="94.3354" y2="-1.4829">
			<stop  offset="0.2809" style="stop-color:#FCC60C"/>
			<stop  offset="0.6685" style="stop-color:#F28F3F"/>
			<stop  offset="0.8876" style="stop-color:#EC683C"/>
			<stop  offset="1" style="stop-color:#E83E3A"/>
		</linearGradient>
		<path class="st14" d="M64.2,33.3c0,0,1.8-5.8,10.1-11.3c3.9-2.6,15.3-2.7,15.3-2.7s-8-7.1-11.3-9.5c-8.4-6.2-14.2-9.8-14.2-9.8"/>
		<polygon class="st12" points="63.7,60.9 67.7,55.9 71.8,50.9 63.7,47.4 56.2,50.9 60.1,55.9 		"/>
		<polygon points="63.8,54.7 63.5,50.7 63.8,51 64.1,50.6 		"/>
		<text transform="matrix(1 0 0 1 316.665 57.6006)" class="st7 st15 st16">OWL</text>
		<g>
			<g>
				<linearGradient id="SVGID_2_" gradientUnits="userSpaceOnUse" x1="155.4795" y1="63.4277" x2="155.4795" y2="19.1777">
					<stop  offset="0" style="stop-color:#FFF23B"/>
					<stop  offset="4.010540e-02" style="stop-color:#FEE62E"/>
					<stop  offset="0.1171" style="stop-color:#FDD41B"/>
					<stop  offset="0.1964" style="stop-color:#FCC910"/>
					<stop  offset="0.2809" style="stop-color:#FCC60C"/>
					<stop  offset="0.672" style="stop-color:#FDD944"/>
					<stop  offset="0.8876" style="stop-color:#F3A342"/>
					<stop  offset="1" style="stop-color:#FADD48"/>
				</linearGradient>
				<path class="st17" d="M168,46.3c0,3.4-1.1,6.2-3.3,8.6c-2.3,2.4-5.3,3.6-9.2,3.6s-6.9-1.2-9.2-3.6c-2.2-2.4-3.3-5.1-3.3-8.3
					l4.7-2.2h0.2v2c0,2,0.6,3.7,1.8,5.1c1.5,1.7,3.4,2.6,5.8,2.6c2.4,0,4.3-0.9,5.8-2.6c1.2-1.3,1.8-3.1,1.8-5.1
					c0-2-0.5-3.5-1.4-4.6c-1.3-1.6-3.4-2.3-6.1-2.3c-3,0-5.6-1-7.8-3c-1.7-1.5-2.5-3.6-2.5-6.5c0-3.3,1-5.8,3.1-7.5
					c2-1.6,4.4-2.4,7.2-2.4c2.9,0,5.3,0.8,7.2,2.4c2,1.7,3.1,4,3.1,6.9l-4.7,2.2h-0.2v-2c0-1.9-0.5-3.3-1.6-4.2
					c-1-0.9-2.3-1.4-3.7-1.4c-1.6,0-2.9,0.5-3.9,1.5c-1,1-1.5,2.4-1.5,4.1c0,1.6,0.4,2.9,1.1,3.7c1,1.1,2.4,1.7,4.2,1.7
					c4,0,7.1,0.9,9.2,2.8C166.9,39.7,168,42.6,168,46.3z"/>
				<linearGradient id="SVGID_3_" gradientUnits="userSpaceOnUse" x1="189.2212" y1="63.4277" x2="189.2212" y2="19.1777">
					<stop  offset="0" style="stop-color:#FFF23B"/>
					<stop  offset="4.010540e-02" style="stop-color:#FEE62E"/>
					<stop  offset="0.1171" style="stop-color:#FDD41B"/>
					<stop  offset="0.1964" style="stop-color:#FCC910"/>
					<stop  offset="0.2809" style="stop-color:#FCC60C"/>
					<stop  offset="0.672" style="stop-color:#FDD944"/>
					<stop  offset="0.8876" style="stop-color:#F3A342"/>
					<stop  offset="1" style="stop-color:#FADD48"/>
				</linearGradient>
				<path class="st18" d="M176.9,59V21.8l2.6-1.2h9.4c3.8,0,6.8,1.2,9.2,3.6c2.2,2.3,3.3,5.2,3.3,8.8c0,3.6-1.1,6.5-3.3,8.8
					c-2.4,2.4-5.4,3.6-9.2,3.6h-7.1v11.4l-4.7,2.2H176.9z M181.9,40.9h7.1c2.2,0,4.1-0.9,5.8-2.6c1.2-1.2,1.8-3,1.8-5.4
					c0-2.2-0.6-4-1.8-5.4c-1.5-1.7-3.4-2.6-5.8-2.6h-7.1V40.9z"/>
				<linearGradient id="SVGID_4_" gradientUnits="userSpaceOnUse" x1="212.6592" y1="63.4277" x2="212.6592" y2="19.1777">
					<stop  offset="0" style="stop-color:#FFF23B"/>
					<stop  offset="4.010540e-02" style="stop-color:#FEE62E"/>
					<stop  offset="0.1171" style="stop-color:#FDD41B"/>
					<stop  offset="0.1964" style="stop-color:#FCC910"/>
					<stop  offset="0.2809" style="stop-color:#FCC60C"/>
					<stop  offset="0.672" style="stop-color:#FDD944"/>
					<stop  offset="0.8876" style="stop-color:#F3A342"/>
					<stop  offset="1" style="stop-color:#FADD48"/>
				</linearGradient>
				<path class="st19" d="M210.2,59V21.8l4.7-2.2h0.2v37.2l-4.7,2.2H210.2z"/>
				<linearGradient id="SVGID_5_" gradientUnits="userSpaceOnUse" x1="237.3364" y1="63.4277" x2="237.3364" y2="19.1777">
					<stop  offset="0" style="stop-color:#FFF23B"/>
					<stop  offset="4.010540e-02" style="stop-color:#FEE62E"/>
					<stop  offset="0.1171" style="stop-color:#FDD41B"/>
					<stop  offset="0.1964" style="stop-color:#FCC910"/>
					<stop  offset="0.2809" style="stop-color:#FCC60C"/>
					<stop  offset="0.672" style="stop-color:#FDD944"/>
					<stop  offset="0.8876" style="stop-color:#F3A342"/>
					<stop  offset="1" style="stop-color:#FADD48"/>
				</linearGradient>
				<path class="st20" d="M225.1,58V21.8l2.6-1.2h9.4c3.8,0,6.8,1.2,9.2,3.6c2.2,2.3,3.3,5.2,3.3,8.8v12.6c0,3.6-1.1,6.5-3.3,8.8
					c-2.3,2.4-5.4,3.6-9.2,3.6H225.1z M230,53.6h7.1c2.4,0,4.3-0.9,5.8-2.6c1.2-1.4,1.8-3.2,1.8-5.4V33c0-2.2-0.6-4-1.8-5.4
					c-1.5-1.7-3.4-2.6-5.8-2.6H230V53.6z"/>
				<linearGradient id="SVGID_6_" gradientUnits="userSpaceOnUse" x1="270.7808" y1="63.4277" x2="270.7808" y2="19.1777">
					<stop  offset="0" style="stop-color:#FFF23B"/>
					<stop  offset="4.010540e-02" style="stop-color:#FEE62E"/>
					<stop  offset="0.1171" style="stop-color:#FDD41B"/>
					<stop  offset="0.1964" style="stop-color:#FCC910"/>
					<stop  offset="0.2809" style="stop-color:#FCC60C"/>
					<stop  offset="0.672" style="stop-color:#FDD944"/>
					<stop  offset="0.8876" style="stop-color:#F3A342"/>
					<stop  offset="1" style="stop-color:#FADD48"/>
				</linearGradient>
				<path class="st21" d="M259.5,58V21.8l2.6-1.2h15.7v0.2l-2,4.3h-11.4v12h13.4v0.2l-2,4.3h-11.4v12H282v0.2l-2,4.3H259.5z"/>
				<linearGradient id="SVGID_7_" gradientUnits="userSpaceOnUse" x1="300.8027" y1="63.4277" x2="300.8027" y2="19.1777">
					<stop  offset="0" style="stop-color:#FFF23B"/>
					<stop  offset="4.010540e-02" style="stop-color:#FEE62E"/>
					<stop  offset="0.1171" style="stop-color:#FDD41B"/>
					<stop  offset="0.1964" style="stop-color:#FCC910"/>
					<stop  offset="0.2809" style="stop-color:#FCC60C"/>
					<stop  offset="0.672" style="stop-color:#FDD944"/>
					<stop  offset="0.8876" style="stop-color:#F3A342"/>
					<stop  offset="1" style="stop-color:#FADD48"/>
				</linearGradient>
				<path class="st22" d="M288.2,59V21.8l2.6-1.2h9.4c3.8,0,6.8,1.2,9.2,3.6c2.2,2.3,3.3,5.2,3.3,8.8c0,3.6-1.1,6.5-3.4,8.8
					c-1.3,1.3-2.9,2.3-4.6,2.9l8.6,12.3L309,59h-0.2l-9.5-13.6h-6v11.4l-4.7,2.2H288.2z M293.2,40.9h7.1c2.2,0,4.1-0.9,5.8-2.6
					c1.2-1.2,1.8-3,1.8-5.4c0-2.2-0.6-4-1.8-5.4c-1.5-1.7-3.4-2.6-5.8-2.6h-7.1V40.9z"/>
			</g>
		</g>
		<text transform="matrix(1 0 0 1 139 86.622)" class="st23 st24 st25">web design solution</text>
	</g>
</g>
</svg>
